<svg version="1.1" xmlns="http://www.w3.org/2000/svg" viewBox="0 0 467.3624177143902 430.6908326292375" width="934.7248354287804" height="861.381665258475">
  <!-- svg-source:excalidraw -->
  
  <defs>
    <style class="style-fonts">
      @font-face {
        font-family: "Virgil";
        src: url("https://excalidraw.com/Virgil.woff2");
      }
      @font-face {
        font-family: "Cascadia";
        src: url("https://excalidraw.com/Cascadia.woff2");
      }
      @font-face {
        font-family: "Assistant";
        src: url("https://excalidraw.com/Assistant-Regular.woff2");
      }
    </style>
    
  </defs>
  <g stroke-linecap="round" transform="translate(10 10) rotate(0 223.6812088571951 205.34541631461875)"><path d="M32 0 C176.6 -4.16, 323.37 -4.78, 415.36 0 C435.99 1.87, 449.42 7.76, 447.36 32 C450.46 123.83, 449.3 216.15, 447.36 378.69 C450.04 399.51, 436.96 411.18, 415.36 410.69 C279.75 407.87, 146.67 408.5, 32 410.69 C10.92 408.47, 1.26 403.53, 0 378.69 C-2.95 277.49, -0.43 176.98, 0 32 C-1.43 12.98, 10.31 -0.82, 32 0" stroke="none" stroke-width="0" fill="#3a6757"></path><path d="M32 0 C125.7 0.46, 221.57 2.07, 415.36 0 M32 0 C140 -0.94, 247.77 -1.26, 415.36 0 M415.36 0 C438.24 -1.77, 447.44 11.81, 447.36 32 M415.36 0 C436.88 1.09, 448.88 10.12, 447.36 32 M447.36 32 C449.08 156.44, 448.14 278.95, 447.36 378.69 M447.36 32 C447.31 148.96, 448.25 267.09, 447.36 378.69 M447.36 378.69 C447.05 400.86, 438.11 411.23, 415.36 410.69 M447.36 378.69 C448.1 400.12, 436.01 409.24, 415.36 410.69 M415.36 410.69 C281.35 409.36, 148.94 410.54, 32 410.69 M415.36 410.69 C290.6 409.41, 165.17 410.03, 32 410.69 M32 410.69 C8.83 409.64, 1.1 399.67, 0 378.69 M32 410.69 C12 411.55, 1.46 398.37, 0 378.69 M0 378.69 C-1.24 262.81, -1.35 147.22, 0 32 M0 378.69 C-2.33 302.6, -2.39 226.22, 0 32 M0 32 C1.2 9.48, 9.09 -1.92, 32 0 M0 32 C-2.09 10.45, 9.18 1.17, 32 0" stroke="#1e1e1e" stroke-width="2" fill="none"></path></g><g stroke-linecap="round" transform="translate(222.68049480140962 46.7500755987183) rotate(0 12.113603951392179 156.77472323434523)"><path d="M11.81 1.29 C13.2 -2.52, 15.1 1.34, 16.46 6.9 C17.82 12.45, 18.88 23.03, 19.96 34.61 C21.03 46.19, 22.16 60.3, 22.91 76.37 C23.67 92.44, 24.18 112.13, 24.49 131.05 C24.81 149.97, 25.01 171.36, 24.8 189.9 C24.58 208.44, 24.23 226.71, 23.2 242.28 C22.18 257.85, 19.86 272.43, 18.66 283.33 C17.46 294.24, 17.42 302.76, 15.99 307.7 C14.57 312.63, 11.74 315.1, 10.13 312.92 C8.53 310.74, 7.63 303.57, 6.37 294.62 C5.12 285.67, 3.41 273.27, 2.61 259.22 C1.8 245.18, 1.81 228.08, 1.54 210.35 C1.26 192.63, 1.21 171.82, 0.95 152.88 C0.69 133.93, -0.43 114.1, -0.03 96.67 C0.38 79.23, 2.06 61.95, 3.39 48.27 C4.71 34.59, 6.57 22.58, 7.93 14.56 C9.29 6.54, 10.75 1.9, 11.54 0.14 C12.34 -1.63, 12.71 1.5, 12.71 3.97 M9.7 7.82 C11.21 0.28, 12.36 -0.65, 13.63 0.55 C14.89 1.75, 16.09 6.74, 17.27 15.05 C18.44 23.35, 19.65 36.39, 20.68 50.39 C21.7 64.39, 22.58 81.79, 23.4 99.05 C24.23 116.3, 25.65 134.97, 25.6 153.93 C25.55 172.88, 23.96 194.82, 23.1 212.78 C22.24 230.73, 21.47 247.55, 20.44 261.67 C19.41 275.78, 18.06 289.21, 16.9 297.49 C15.74 305.76, 14.99 309.64, 13.5 311.33 C12 313.01, 9.42 312.18, 7.93 307.58 C6.44 302.98, 5.32 295.04, 4.55 283.72 C3.77 272.41, 3.94 255.83, 3.3 239.69 C2.65 223.56, 1.28 205.2, 0.69 186.91 C0.1 168.63, -0.48 148.6, -0.25 129.98 C-0.02 111.35, 1.06 91.36, 2.06 75.16 C3.05 58.97, 4.49 44.04, 5.73 32.83 C6.98 21.62, 8.9 11.93, 9.54 7.92 C10.17 3.9, 9.86 6.29, 9.56 8.72" stroke="none" stroke-width="0" fill="#2b4441"></path><path d="M14.08 1.77 C15.35 2.06, 16.47 11.7, 17.69 21.08 C18.91 30.45, 20.27 43.46, 21.4 58.01 C22.52 72.56, 23.86 90.2, 24.44 108.4 C25.03 126.59, 24.98 148.24, 24.92 167.17 C24.87 186.11, 24.79 205.04, 24.11 222.03 C23.43 239.01, 21.9 255.98, 20.83 269.1 C19.76 282.21, 18.93 293.4, 17.7 300.7 C16.46 308, 14.87 312.22, 13.42 312.87 C11.98 313.53, 10.59 310.96, 9.05 304.64 C7.5 298.31, 5.48 287.17, 4.16 274.91 C2.84 262.64, 1.93 247.36, 1.15 231.03 C0.36 214.7, -0.33 195.61, -0.57 176.94 C-0.81 158.27, -0.76 137.55, -0.27 119.03 C0.21 100.51, 1.38 81.4, 2.34 65.84 C3.29 50.28, 4.26 35.92, 5.46 25.68 C6.66 15.45, 7.99 7.98, 9.54 4.4 C11.09 0.83, 13.73 2.89, 14.77 4.24 C15.81 5.6, 15.77 9.92, 15.79 12.52 M15.6 7.92 C16.92 10.34, 17.51 20.66, 18.41 31.96 C19.31 43.27, 20.13 59.63, 21.02 75.75 C21.91 91.86, 23.4 110.13, 23.76 128.66 C24.13 147.19, 23.47 168.36, 23.2 186.93 C22.94 205.5, 22.9 224.33, 22.18 240.09 C21.45 255.85, 19.75 270.38, 18.83 281.5 C17.9 292.61, 18.04 301.68, 16.62 306.77 C15.2 311.86, 11.76 313.52, 10.3 312.03 C8.83 310.54, 8.82 306.39, 7.84 297.84 C6.86 289.29, 5.51 275.14, 4.44 260.74 C3.37 246.34, 1.96 228.79, 1.43 211.43 C0.9 194.07, 1.58 175.41, 1.25 156.58 C0.92 137.75, -0.95 116.34, -0.54 98.45 C-0.12 80.56, 2.33 63.04, 3.73 49.24 C5.14 35.43, 6.69 23.61, 7.91 15.6 C9.14 7.59, 9.79 2.7, 11.08 1.19 C12.38 -0.33, 14.93 5.22, 15.67 6.5 C16.41 7.78, 15.49 6.3, 15.53 8.87" stroke="#ffffff" stroke-width="4" fill="none"></path></g><g stroke-linecap="round" transform="translate(63.92629894535594 133.0325122560198) rotate(0 78.75136767579829 83.33762329834337)"><path d="M113.61 8.12 C123.31 11.47, 131.98 20, 139.03 28.52 C146.09 37.04, 153.23 48.03, 155.93 59.25 C158.63 70.46, 156.86 84.22, 155.26 95.81 C153.66 107.39, 151.84 119.16, 146.33 128.76 C140.83 138.35, 131.15 146.96, 122.25 153.39 C113.34 159.82, 103.66 165.57, 92.91 167.31 C82.16 169.05, 68.21 166.89, 57.74 163.82 C47.28 160.75, 38.11 155.9, 30.13 148.9 C22.14 141.89, 14.93 132.08, 9.81 121.79 C4.69 111.51, 0.19 98.32, -0.59 87.19 C-1.37 76.06, 1.39 65.53, 5.16 55.01 C8.92 44.49, 14.34 32.3, 22.01 24.07 C29.69 15.85, 41.19 9.8, 51.2 5.67 C61.21 1.55, 67.95 -4, 82.08 -0.66 C96.2 2.67, 124.64 17.21, 135.96 25.69 C147.29 34.18, 150.86 49.6, 150.04 50.26 M92.89 2.64 C102.74 4.04, 111.01 10.85, 119.76 16.62 C128.51 22.4, 139.07 27.88, 145.39 37.29 C151.7 46.7, 156.58 61.55, 157.65 73.07 C158.72 84.59, 155.12 95.45, 151.81 106.41 C148.5 117.37, 144.58 130.24, 137.8 138.84 C131.01 147.44, 120.19 153.7, 111.1 158.02 C102.01 162.33, 93.1 163.81, 83.25 164.76 C73.4 165.71, 61.65 167.56, 51.99 163.72 C42.33 159.89, 33.4 150.42, 25.27 141.75 C17.15 133.09, 7.06 122.34, 3.22 111.75 C-0.61 101.15, 1.54 89.43, 2.26 78.18 C2.97 66.93, 3.29 54.12, 7.51 44.26 C11.73 34.4, 18.88 26.33, 27.6 19 C36.32 11.67, 49.13 3.43, 59.83 0.27 C70.53 -2.89, 86.7 -0.76, 91.78 0.04 C96.86 0.83, 90.53 3.28, 90.31 5.03" stroke="none" stroke-width="0" fill="#2b4441"></path><path d="M26.26 20.98 C33.21 12.24, 45.16 6.61, 55.09 3 C65.03 -0.61, 75.26 -1.98, 85.88 -0.7 C96.49 0.58, 109.22 4.87, 118.78 10.69 C128.35 16.51, 137 25.31, 143.27 34.22 C149.53 43.13, 154.11 52.99, 156.39 64.15 C158.67 75.31, 159.13 90.19, 156.92 101.19 C154.72 112.18, 149.6 121.41, 143.15 130.12 C136.7 138.82, 127.55 147.63, 118.23 153.42 C108.91 159.22, 97.97 163.3, 87.22 164.88 C76.46 166.45, 63.53 165.79, 53.71 162.88 C43.89 159.96, 35.75 155.12, 28.29 147.39 C20.82 139.66, 13.39 126.64, 8.92 116.5 C4.45 106.35, 2.21 97.3, 1.49 86.52 C0.77 75.74, -0.65 63.76, 4.58 51.8 C9.81 39.84, 27.44 21.05, 32.88 14.78 C38.31 8.51, 36.9 12.62, 37.19 14.18 M106.24 4 C115.8 6.83, 126.71 19.07, 134.12 27 C141.53 34.93, 146.86 40.81, 150.71 51.6 C154.56 62.39, 157.51 80.45, 157.25 91.75 C156.98 103.05, 153.84 109.43, 149.1 119.41 C144.37 129.4, 136.87 144.27, 128.83 151.65 C120.8 159.02, 111.37 161.65, 100.87 163.66 C90.37 165.67, 77.22 165.38, 65.83 163.69 C54.44 161.99, 41.51 159.03, 32.55 153.49 C23.59 147.96, 17.55 140.18, 12.07 130.5 C6.59 120.82, 0.83 107.23, -0.34 95.42 C-1.5 83.61, 2.17 70.83, 5.08 59.64 C8 48.45, 10.21 37.01, 17.16 28.26 C24.11 19.5, 37.25 12.17, 46.79 7.13 C56.32 2.09, 64.58 -1.79, 74.36 -1.97 C84.13 -2.15, 99.68 4.77, 105.42 6.05 C111.16 7.33, 109.05 4.24, 108.79 5.72" stroke="#ffffff" stroke-width="4" fill="none"></path></g><g stroke-linecap="round"><g transform="translate(249.20004045201654 222.18387388269878) rotate(0 73.66075060305036 -18.823750777990227)"><path d="M0.16 -1.44 C14.94 -16.54, 66.35 -102.3, 91.24 -92.64 C116.12 -82.99, 139.92 31.99, 149.47 56.5 M-3.2 3.95 C11.19 -10.46, 64.97 -96.84, 90.31 -88.89 C115.65 -80.94, 138.91 27.42, 148.82 51.66" stroke="#ffffff" stroke-width="4" fill="none"></path></g></g><mask></mask><g stroke-linecap="round" transform="translate(34.31446866799524 34.564837408184644) rotate(0 202.2267976052192 181.63598840730512)"><path d="M32 0 C145.83 1.72, 262.64 3.09, 372.45 0 M32 0 C142.58 1, 251.35 -1.29, 372.45 0 M372.45 0 C392.02 -1.05, 403.91 13.44, 404.45 32 M372.45 0 C393.18 -1.15, 399.92 6.77, 404.45 32 M404.45 32 C407.36 97.85, 404.52 161.79, 404.45 331.27 M404.45 32 C405.98 136.03, 404.68 238.64, 404.45 331.27 M404.45 331.27 C401 349.14, 392.23 363.76, 372.45 363.27 M404.45 331.27 C408.29 350.37, 394.48 364.17, 372.45 363.27 M372.45 363.27 C242.39 363.44, 115.76 361.09, 32 363.27 M372.45 363.27 C286.64 360.37, 200.84 360.88, 32 363.27 M32 363.27 C7.38 365.74, 2.78 352.29, 0 331.27 M32 363.27 C10.18 367.4, -0.8 353.79, 0 331.27 M0 331.27 C1.8 216.09, 5.15 101.41, 0 32 M0 331.27 C-0.84 228.4, 0.98 127.56, 0 32 M0 32 C-0.75 11.57, 9.16 0.16, 32 0 M0 32 C-0.6 14.42, 6.61 1.3, 32 0" stroke="#ffffff" stroke-width="4" fill="none"></path></g><g stroke-linecap="round" transform="translate(71.07226126272553 135.74913854625254) rotate(0 71.58672325658972 79.82215425919168)"><path d="M49.49 3.67 C58.52 -0.98, 70.28 -0.61, 80.57 1.15 C90.85 2.9, 102.37 7.69, 111.2 14.19 C120.03 20.69, 128.55 30.33, 133.54 40.16 C138.53 49.98, 140.32 62.11, 141.14 73.13 C141.96 84.15, 141.68 95.37, 138.46 106.29 C135.25 117.21, 129.6 130.06, 121.87 138.64 C114.14 147.21, 102.04 154.46, 92.07 157.72 C82.11 160.97, 71.97 159.82, 62.08 158.18 C52.19 156.54, 41.73 154.02, 32.75 147.88 C23.76 141.74, 13.77 131.2, 8.15 121.33 C2.53 111.45, -0.04 100.21, -0.96 88.62 C-1.88 77.03, -1.34 63.08, 2.62 51.78 C6.58 40.48, 8.99 28.93, 22.77 20.81 C36.55 12.69, 69.7 3.53, 85.3 3.06 C100.91 2.59, 117.02 17.12, 116.4 18.01 M117.35 17.23 C125.7 23.84, 133.99 37.8, 137.88 48.73 C141.77 59.67, 141.35 71.65, 140.69 82.86 C140.02 94.07, 137.92 105.76, 133.89 115.98 C129.86 126.2, 124.45 136.93, 116.51 144.18 C108.57 151.44, 96.88 157.21, 86.26 159.52 C75.63 161.83, 62.72 161.09, 52.75 158.05 C42.78 155.02, 33.99 149.12, 26.45 141.31 C18.9 133.51, 12.12 122.05, 7.47 111.22 C2.82 100.38, -1.26 88.25, -1.45 76.33 C-1.65 64.4, 0.88 49.68, 6.32 39.69 C11.76 29.71, 22.63 22.49, 31.19 16.42 C39.76 10.34, 48.34 5.57, 57.72 3.24 C67.09 0.9, 77.37 -0.74, 87.44 2.4 C97.51 5.54, 113.51 19.15, 118.14 22.07 C122.76 25, 115.77 19.28, 115.2 19.96" stroke="none" stroke-width="0" fill="#3a6757"></path><path d="M14.88 26.58 C20.34 16.92, 33.22 9.78, 43.12 5.48 C53.03 1.18, 64.01 0.04, 74.3 0.79 C84.6 1.54, 96.03 5.02, 104.91 9.97 C113.8 14.92, 121.58 21.23, 127.61 30.46 C133.64 39.7, 139.09 54.16, 141.1 65.37 C143.1 76.59, 142.12 86.44, 139.65 97.75 C137.18 109.06, 132.67 124.39, 126.28 133.24 C119.9 142.08, 110.63 146.12, 101.34 150.84 C92.05 155.55, 80.66 161.59, 70.54 161.53 C60.42 161.48, 49.93 156.29, 40.62 150.49 C31.31 144.68, 21.52 135.78, 14.7 126.71 C7.89 117.64, 1.83 106.89, -0.26 96.06 C-2.34 85.24, -8.88 77.73, 2.18 61.76 C13.24 45.79, 46.42 6.99, 66.1 0.24 C85.78 -6.51, 120.17 20.15, 120.26 21.27 M128.3 31.72 C135.07 40.5, 140.7 56.99, 142.39 68.61 C144.08 80.24, 141.21 90.48, 138.45 101.48 C135.68 112.48, 132.5 125.66, 125.8 134.62 C119.1 143.58, 108.3 151.08, 98.23 155.23 C88.16 159.37, 75.78 160.63, 65.39 159.48 C55 158.33, 44.77 154.47, 35.88 148.33 C26.99 142.18, 17.55 132.4, 12.03 122.62 C6.52 112.83, 4.66 100.55, 2.81 89.64 C0.96 78.73, -2.01 67.59, 0.93 57.14 C3.87 46.7, 13.11 35.39, 20.45 26.96 C27.78 18.53, 35.32 10.6, 44.93 6.57 C54.54 2.55, 68.1 2.24, 78.1 2.82 C88.1 3.4, 96.13 4.71, 104.95 10.04 C113.77 15.37, 126.76 30.61, 131.03 34.8 C135.3 39, 131.86 34.83, 130.59 35.2" stroke="#ffffff" stroke-width="4" fill="none"></path></g><g stroke-linecap="round"><g transform="translate(248.43968890107885 231.04392205761093) rotate(0 73.78478522481635 -18.401550623654373)"><path d="M1.95 -1.24 C17.25 -16.54, 67.38 -99.3, 91.68 -90.52 C115.98 -81.75, 138.21 27.36, 147.75 51.43 M-0.44 4.26 C14.75 -10.65, 66.49 -94.9, 90.91 -86.75 C115.32 -78.6, 136.16 29.28, 146.04 53.15" stroke="#ffffff" stroke-width="4" fill="none"></path></g></g><mask></mask><g stroke-linecap="round" transform="translate(229.46426712113498 65.20715621388894) rotate(0 8.385015329535918 148.39529354253796)"><path d="M8.86 1 C9.95 0.56, 11.5 8.19, 12.53 16.58 C13.57 24.98, 14.44 37.88, 15.07 51.38 C15.69 64.88, 16 80.85, 16.28 97.55 C16.57 114.26, 16.8 133.78, 16.77 151.64 C16.73 169.5, 16.39 188.19, 16.06 204.72 C15.74 221.25, 15.51 237.75, 14.83 250.81 C14.15 263.87, 12.98 275.53, 11.99 283.09 C10.99 290.65, 9.8 295.02, 8.84 296.17 C7.87 297.31, 7.09 295.1, 6.19 289.94 C5.29 284.78, 4.35 276.21, 3.44 265.22 C2.53 254.22, 1.3 239.47, 0.7 223.96 C0.11 208.44, 0.03 189.74, -0.12 172.13 C-0.27 154.52, -0.44 135.82, -0.19 118.31 C0.07 100.81, 0.74 82.08, 1.4 67.11 C2.06 52.14, 2.92 38.8, 3.76 28.49 C4.59 18.18, 5.43 9.83, 6.41 5.22 C7.38 0.62, 9.16 0.99, 9.62 0.86 C10.08 0.73, 9.26 1.85, 9.18 4.45 M8.87 0.63 C9.98 -0.53, 11.15 6.27, 12.01 13.56 C12.87 20.85, 13.37 31.68, 14.06 44.36 C14.75 57.04, 15.65 73, 16.15 89.65 C16.65 106.3, 16.95 126.24, 17.05 144.29 C17.15 162.34, 17.02 181.11, 16.75 197.94 C16.49 214.78, 16.15 231.91, 15.46 245.3 C14.78 258.68, 13.72 269.8, 12.63 278.27 C11.54 286.73, 9.91 293.69, 8.93 296.09 C7.94 298.5, 7.71 297.18, 6.73 292.71 C5.75 288.23, 3.84 279.49, 3.06 269.26 C2.29 259.03, 2.51 246, 2.08 231.31 C1.66 216.62, 0.84 198.65, 0.52 181.14 C0.2 163.62, 0.11 144.07, 0.16 126.25 C0.22 108.43, 0.47 89.69, 0.86 74.23 C1.25 58.76, 1.72 44.76, 2.52 33.46 C3.32 22.15, 4.59 12.05, 5.67 6.41 C6.74 0.77, 8.52 0.24, 8.96 -0.36 C9.4 -0.97, 8.4 0.29, 8.29 2.78" stroke="none" stroke-width="0" fill="#3a6757"></path><path d="M8.83 0.1 C9.81 -1.61, 10.55 5.01, 11.5 12.11 C12.44 19.22, 13.81 30.18, 14.5 42.75 C15.2 55.32, 15.3 71.31, 15.67 87.53 C16.04 103.75, 16.59 122.29, 16.72 140.08 C16.84 157.87, 16.74 177.2, 16.43 194.28 C16.12 211.36, 15.52 228.73, 14.84 242.56 C14.16 256.38, 13.18 268.54, 12.37 277.23 C11.55 285.93, 10.98 292.01, 9.95 294.73 C8.91 297.45, 7.26 297.35, 6.15 293.56 C5.05 289.78, 4.07 282.04, 3.3 272.02 C2.52 262, 2.08 248.24, 1.52 233.44 C0.95 218.63, 0.23 200.54, -0.09 183.18 C-0.41 165.83, -0.57 147, -0.4 129.28 C-0.22 111.56, 0.44 92.49, 0.94 76.86 C1.45 61.23, 1.8 47.04, 2.61 35.51 C3.41 23.97, 4.78 13.5, 5.78 7.64 C6.78 1.77, 8.13 1, 8.6 0.32 C9.08 -0.37, 8.6 1.13, 8.64 3.52 M6.22 1.73 C7.34 -3.45, 9.33 -0.85, 10.53 2.64 C11.73 6.13, 12.68 13.18, 13.4 22.68 C14.12 32.19, 14.27 45.21, 14.84 59.66 C15.4 74.12, 16.55 92.08, 16.77 109.42 C17 126.77, 16.29 145.98, 16.16 163.74 C16.03 181.5, 16.37 200.05, 15.97 215.97 C15.57 231.9, 14.56 247.3, 13.74 259.27 C12.93 271.23, 12.02 281.62, 11.07 287.76 C10.13 293.89, 9.03 296.35, 8.09 296.08 C7.15 295.81, 6.25 292.66, 5.44 286.14 C4.63 279.63, 3.89 269.04, 3.23 257.01 C2.57 244.98, 1.92 230.01, 1.49 213.95 C1.06 197.9, 0.81 178.63, 0.65 160.68 C0.48 142.72, 0.24 123.29, 0.52 106.22 C0.79 89.16, 1.61 72.5, 2.28 58.27 C2.95 44.04, 3.78 30.11, 4.53 20.85 C5.28 11.6, 6.37 5.22, 6.78 2.74 C7.2 0.25, 6.95 3.68, 7.02 5.95" stroke="#ffffff" stroke-width="4" fill="none"></path></g><g stroke-linecap="round" transform="translate(22.928542509169574 24.23375787079533) rotate(0 202.2267976052192 181.63598840730512)"><path d="M32 0 C107.25 1.69, 181.33 2.61, 372.45 0 M32 0 C161.73 3.7, 292.45 4.97, 372.45 0 M372.45 0 C393.26 -1, 400.51 7.28, 404.45 32 M372.45 0 C390.05 1.46, 399.87 13.03, 404.45 32 M404.45 32 C403.81 126.38, 403.06 221.2, 404.45 331.27 M404.45 32 C401.51 130.52, 402.21 231.76, 404.45 331.27 M404.45 331.27 C407.79 350.66, 394.39 364.05, 372.45 363.27 M404.45 331.27 C407.98 351.61, 394.12 360.09, 372.45 363.27 M372.45 363.27 C270.97 356.92, 170.82 358.04, 32 363.27 M372.45 363.27 C286.59 363.5, 203.84 362.58, 32 363.27 M32 363.27 C10.24 366.86, -0.7 353.63, 0 331.27 M32 363.27 C14.54 358.69, 4.18 348.57, 0 331.27 M0 331.27 C0.09 243.49, 0.76 153.68, 0 32 M0 331.27 C-1.6 250.23, -1.88 168.59, 0 32 M0 32 C-0.53 13.93, 7.14 1.13, 32 0 M0 32 C3.11 10.75, 14.83 0.68, 32 0" stroke="#ffffff" stroke-width="4" fill="none"></path></g></svg>